<svg version="1.2" xmlns="http://www.w3.org/2000/svg" viewBox="0 0 783 1411" width="787" height="1419">
	<title>ls-logo</title>
	<style>
		.s0 { fill: #000000 } 
	</style>
	<path id="Preencher com Cor Sólida 1" fill-rule="evenodd" class="s0" d="m374.1 38.2v11.1l-27.7 0.8c-26 0.7-28.3 1-35.4 4.3-4.4 2-10.2 6.3-13.6 10-3.2 3.5-6.8 8.8-8 11.6-1.2 2.9-3.1 9.8-4.2 15.3-1.6 8.3-2 35.9-2 310.1h21.2c11.6 0 30.5 0.9 42 2 11.4 1.1 24.2 2.6 28.4 3.4 4.2 0.7 12.7 2.3 18.8 3.5 6.1 1.3 15.8 3.6 21.5 5.1 5.7 1.5 21.3 6.2 34.7 10.4 13.4 4.2 25.9 8.3 27.8 9 1.9 0.7 8 2.2 13.5 3.3 5.5 1.2 16.8 2.1 25 2.1 10.9 0 17.5-0.7 24.6-2.8 5.4-1.5 11.6-4 13.9-5.4 2.3-1.4 6.4-5 9.1-7.9 2.7-3 7.4-9.3 10.4-14.1 4.4-6.9 6.2-8.7 9-8.7 1.9 0 3.9 0.5 4.4 1.1 0.5 0.6-1.5 7.9-4.6 16.3-3.1 8.4-6.3 17.5-7 20.2-0.8 2.6-1.8 5.4-2.3 6.2-0.4 0.8-2.8 7-5.2 13.9-2.4 6.9-9.7 27.5-16.2 45.8-6.5 18.4-12.5 35.2-13.3 37.5-0.8 2.3-4.6 12.9-8.5 23.6-3.9 10.7-8.4 23.2-10 27.8-1.5 4.6-3.3 9.6-4 11.1-0.6 1.5-4.3 11.5-8.1 22.2-3.8 10.7-10.5 29.5-14.8 41.7-4.3 12.2-9.3 26.4-11.2 31.6-1.8 5.1-4.9 13.7-6.8 19.1-1.9 5.3-5.1 14.2-7.1 19.8-1.9 5.5-4.4 12.2-5.5 14.9-1 2.7-5.4 14.9-9.6 27.1-4.3 12.2-8.7 24.7-9.9 27.8-1.2 3-3 8-4 11.1-1 3-4.1 11.8-6.9 19.4-2.8 7.7-6.9 19.2-9.2 25.7-2.2 6.5-4.1 12.6-4.1 13.6 0.1 0.9 5.2 4.9 11.5 8.8 6.3 3.9 17.7 11.5 25.4 16.9 7.6 5.5 18.5 13.7 24.2 18.3 5.8 4.6 17.2 14.9 40.5 37.5l7.9-1.9c4.3-1 12.9-3.7 19-6 6.1-2.2 16.7-6.9 23.6-10.4 6.9-3.4 18.7-10.7 26.4-16.1 7.6-5.3 20.7-16.7 29.2-25.1 8.4-8.5 19.5-21.1 24.6-28 5.1-6.8 12.9-18.7 17.5-26.3 4.5-7.7 10.8-18.9 13.8-25 3-6.1 8.1-17.4 11.3-25 3.2-7.7 7.3-18.3 9.2-23.6 1.9-5.4 4.7-13.2 6.1-17.4 1.4-4.2 4-12.3 5.6-18.1 1.7-5.7 4.3-15.1 5.8-20.8 1.5-5.7 3.7-14.5 4.8-19.4 1.2-5 3-13.4 4.1-18.8 1-5.3 2.5-12.8 3.2-16.6 0.7-3.9 2.3-11.4 3.5-16.7 1.1-5.4 2.6-11.6 3.3-13.9 0.9-3.3 2-4.3 5.2-4.6 2.3-0.2 4.6 0.1 5.2 0.7 0.6 0.6 0.4 4.9-0.3 9.5-0.8 4.5-3 17.7-5 29.1-1.9 11.5-4.5 26.2-5.6 32.7-1.2 6.4-2.7 14.9-3.3 18.7-0.7 3.8-2.3 12.9-3.5 20.1-1.3 7.3-2.9 16.7-3.5 20.9-0.7 4.2-2.2 13.2-3.5 20.1-1.2 6.9-3.8 21.6-5.7 32.6-1.9 11.1-4.4 25.5-5.5 32-1.2 6.5-2.7 15.2-3.4 19.4-0.7 4.2-2.2 13.3-3.4 20.2-1.3 6.8-2.8 15.9-3.5 20.1-0.7 4.2-2.3 13-3.5 19.4-1.2 6.5-3.7 20.9-5.6 32-1.8 11.1-4.1 24.8-7 41l-12.4 0.8-1-6c-0.6-3.3-2.2-6.7-3.5-7.7-1.3-0.9-4.6-2.3-7.3-3.1-3-0.8-28.3-1.2-128.9-0.7l6 9c3.4 5 9.8 16.2 14.3 25 4.5 8.8 10.1 21.9 12.4 29.2 2.4 7.2 5 16 5.9 19.4 0.8 3.5 2.1 9.4 2.9 13.2 0.7 3.8 2.3 16.3 3.4 27.8 1.1 11.5 2.1 25.8 2 31.9 0 6.1-0.8 18.6-1.9 27.8-1 9.2-2.9 21.4-4.1 27.1-1.2 5.7-3.7 15.4-5.5 21.5-1.9 6.1-4.6 14.3-6.1 18.1-1.5 3.8-5.8 12.9-9.4 20.1-3.6 7.3-8.4 15.9-10.6 19.1-2.2 3.3-4 6.2-4 6.6 0 0.4-4.5 6.5-10.2 13.5-5.6 7.1-14.5 16.9-19.7 21.8-5.3 4.9-12.7 11.5-16.6 14.5-3.8 3-11.9 8.7-18 12.7-6.1 4-15.6 9.5-21.2 12.3-5.5 2.8-14.7 6.9-20.5 9.2-5.7 2.3-17.1 6-25.3 8.2-8.2 2.2-18.4 4.7-22.6 5.5-4.2 0.8-12.6 2.3-18.7 3.3-7.6 1.2-26.8 1.8-61.1 1.8-34.2 0-53.9-0.6-62.5-1.9-6.8-1-16.5-2.4-21.5-3.1-4.9-0.8-19-3.2-31.2-5.4-12.2-2.2-27.5-4.8-34-5.7-6.5-0.9-22.1-1.7-34.7-1.8-20.2 0-24 0.4-32 3.1-4.9 1.7-11.8 4.9-15.2 7.1-3.5 2.2-7.2 5-8.4 6.2-1.3 1.5-4.2 2.3-13.8 2.2l0.6-488.2h11.2l0.7 138.2c0.7 123.2 1 139.8 3.2 152.8 1.4 8 3.3 18.6 4.4 23.6 1 4.9 3.8 15.2 6.3 22.9 2.4 7.6 8.4 21.7 13.4 31.2 5 9.6 13.5 23.3 18.9 30.4 5.5 7.2 13.4 16.2 17.6 19.9 4.2 3.8 13 10.5 19.4 14.9 6.5 4.5 17.6 11 24.7 14.5 7.1 3.5 17.4 8 22.9 10 5.5 2 13.5 4.5 17.7 5.6 4.2 1.2 12 3 17.4 4 5.3 1.1 13.4 2.6 18 3.5 4.6 0.8 18.3 2.4 30.5 3.5 12.3 1.1 26.9 2 32.7 2 5.7 0 18.2-0.9 27.7-2 9.6-1.1 23.6-3.6 31.3-5.6 7.6-2 19.5-5.9 26.3-8.6 6.9-2.8 17.5-7.9 23.6-11.4 6.2-3.5 15.2-9.5 20.2-13.3 4.9-3.8 13.9-11.9 20-18.1 6-6.1 15.5-17.9 21.1-26.4 5.5-8.4 12.5-20.5 15.5-27 3-6.5 7.1-16.5 9-22.3 2-5.7 4.6-14.4 5.7-19.4 1.2-5 3.1-14.6 4.3-21.5 1.1-6.9 2.8-22.2 3.7-34 1.3-17.1 1.3-25.2-0.1-38.9-1-9.6-2.7-21.5-3.8-26.4-1.1-5-2.9-12.2-4.1-16-1.2-3.8-5.2-13.2-9-20.8-3.7-7.7-11-19.5-16.1-26.4-5.2-6.8-14.7-18-21.2-24.8-6.5-6.8-15.7-15.4-29.2-25.9h-313.7l0.7-11.8 12.4-0.3c6.9-0.2 19.4-0.6 27.8-0.8 12.6-0.4 16.6-1 22.8-3.8 4.3-2 9.9-6.1 13.1-9.7 3.1-3.4 7.2-9.7 9.1-13.9 3.3-7.3 3.5-9 4.2-44.4 0.4-20.3 0.6-38.2 0.4-39.9-0.2-2.1-2.5-4.4-6.9-6.9-3.6-2.1-11.3-6.9-17-10.7-5.7-3.8-19.2-13.5-29.8-21.6-10.7-8-25.8-20.9-33.5-28.5-7.7-7.7-17.5-18.3-21.7-23.7-4.2-5.3-11.1-15-15.3-21.5-4.3-6.5-10.9-18.3-14.7-26.4-3.9-8-7.9-17.4-9-20.8-1.2-3.4-3-9.7-4.2-13.9-1.1-4.2-2.8-11.1-3.6-15.3-0.9-4.2-2.5-15.4-3.6-25-1.1-9.5-2-23.6-2-31.2 0-7.6 0.9-21.1 2.1-29.9 1.2-8.8 3.1-19.4 4.2-23.6 1.2-4.2 2.8-10 3.5-12.8 0.7-2.9 3.6-10.4 6.5-16.7 3-6.3 8.2-15.8 11.7-21.2 3.5-5.3 8.1-11.9 10.3-14.5 2.2-2.7 8.6-9.6 14.4-15.4 5.7-5.8 13.5-13 17.4-16.1 3.8-3.1 11.3-8.5 16.6-11.9 5.4-3.5 15.7-9.3 22.9-12.9 7.3-3.7 21.7-9.6 50.7-19.7v-327.5l-3.8-8c-2.1-4.4-6.2-10.5-9-13.7-2.9-3.2-8.7-7.4-12.9-9.3-7.2-3.4-9.2-3.7-63.1-5.1l-0.5-4.2c-0.2-2.3-0.1-4.9 0.4-5.9 0.5-1.4 26.4-1.6 249.9-1zm-90.1 376.4c-0.7 0.7-1.2 79.5-1.1 196.3 0.2 185.5 0.3 195.4 2.7 197.5 1.4 1.2 10.9 6.4 21.2 11.6 10.3 5.2 23.3 11.9 28.8 14.9 5.6 2.9 14.9 7.9 20.8 11.1 6 3.1 17.2 9.4 25 13.9 7.9 4.4 14.6 8.1 15 8.1 0.3 0 2.5 1.2 4.8 2.8 2.3 1.5 5 2.5 5.9 2.2 1-0.3 2.6-2.9 3.6-5.9 1-2.9 4.4-12.2 7.4-20.6 3.1-8.4 7.1-19.4 8.8-24.3 1.8-5 5-13.8 7-19.5 2-5.7 4.5-12.3 5.5-14.6 1-2.3 2.8-6.9 3.9-10.4 1.2-3.4 5.7-16.2 10-28.5 4.3-12.2 11-32.2 14.8-44.4 3.9-12.2 8.5-27.5 10.3-34 1.9-6.5 4.6-17.4 6.2-24.3 1.5-6.9 3.3-15.3 4-18.8 0.8-3.4 2.4-13.7 3.8-22.9 1.5-10.8 2.3-25.1 2.3-41 0-17.5-0.7-27.7-2.5-36.8-1.3-6.8-4-17.1-5.9-22.9-2-5.7-5.1-13.5-7-17.3-1.9-3.9-5.8-10.1-8.7-13.9-2.8-3.8-9.4-11-14.7-15.9-5.3-4.9-13-11.1-17.2-13.8-4.2-2.7-12.6-7.1-18.7-9.9-6.1-2.8-15.5-6.4-20.9-8-5.3-1.6-14.7-3.9-20.8-5-6.1-1.2-15.8-2.8-21.5-3.7-5.7-0.9-24.2-1.9-41-2.3-16.8-0.4-31.1-0.3-31.8 0.3zm-81.3 19.1c-5 2.5-14.7 8.2-21.5 12.7-6.9 4.4-17.6 13.2-23.8 19.4-6.2 6.2-14.9 16.9-19.3 23.7-4.4 6.9-10 16.9-12.4 22.3-2.5 5.3-5.7 14.1-7.3 19.4-1.5 5.4-3.5 12.5-4.4 16-0.8 3.4-2.1 12.2-2.9 19.4-0.8 8.6-0.8 19.8 0 32 0.8 10.3 2.6 24.6 4.1 31.9 1.5 7.3 4 16.6 5.4 20.8 1.5 4.2 4.4 11.4 6.5 16 2 4.6 6 12.1 8.7 16.7 2.8 4.6 8.2 12.7 12 18 3.8 5.4 9.2 12.2 11.9 15.2 2.6 3 9.5 10.2 15.3 16 5.7 5.8 16.6 15.3 24.2 21.2 12.2 9.4 14 10.3 14.6 7.9 0.4-1.6 0.5-77.1 0.3-168-0.2-90.8-0.8-165.1-1.4-165.1-0.5 0-5 2.1-10 4.5zm80.5 494v37.5c106 0 136.1-0.5 135.4-1.1-0.8-0.7-7.4-5-14.6-9.6-7.3-4.6-21.6-13.2-31.9-19.1-10.3-6-31-17-45.9-24.7-14.8-7.6-29.7-15.4-32.9-17.2-3.3-1.8-6.9-3.3-8-3.3-1.8 0-2.1 5.1-2.1 37.5z"/>
</svg>